<?xml version="1.0" standalone="no"?>
<!DOCTYPE svg PUBLIC "-//W3C//DTD SVG 20010904//EN" "http://www.w3.org/TR/2001/REC-SVG-20010904/DTD/svg10.dtd">
<svg xmlns="http://www.w3.org/2000/svg" version="1.0" width="5120.000000pt" height="5120.000000pt" viewBox="0 0 5120.000000 5120.000000" preserveAspectRatio="xMidYMid meet">
<metadata>
Created by potrace 1.16, written by Peter Selinger 2001-2019
<meta name="Producer" content="Online-Convert"/></metadata>
<g transform="translate(0.000000,5120.000000) scale(0.100000,-0.100000)" fill="#000000" stroke="none">
<path d="M8748 39130 c-84 -26 -137 -61 -205 -133 -41 -44 -69 -86 -89 -133 l-29 -69 -3 -1369 c-1 -754 -4 -1371 -5 -1373 -2 -1 -439 -4 -973 -6 -533 -1 -982 -6 -999 -10 -61 -16 -155 -66 -200 -108 -63 -59 -103 -119 -131 -198 l-24 -66 0 -10255 1 -10255 22 -65 c45 -132 131 -225 262 -287 l60 -28 2665 -3 c1466 -1 4974 -3 7795 -5 2822 -1 5137 -5 5145 -8 64 -21 116 -58 178 -127 37 -42 396 -457 797 -922 401 -465 770 -885 820 -935 320 -316 739 -553 1153 -650 37 -9 85 -20 107 -25 139 -33 273 -45 505 -45 232 0 366 12 505 45 22 5 70 16 107 25 414 97 833 334 1153 650 50 50 419 470 820 935 401 465 760 880 797 922 62 69 114 106 178 127 8 3 2324 7 5145 8 2822 2 6329 4 7796 5 l2665 3 77 38 c128 63 217 170 252 302 13 53 15 1113 15 10295 0 6859 -4 10249 -11 10279 -29 127 -125 249 -243 306 -39 19 -84 38 -101 42 -16 4 -466 9 -999 10 -534 2 -971 5 -973 6 -1 2 -4 619 -5 1373 l-3 1369 -29 69 c-20 47 -48 89 -89 133 -69 73 -115 103 -207 132 l-65 21 -6725 -3 c-3699 -2 -6750 -6 -6780 -11 -79 -10 -309 -45 -350 -52 -19 -3 -75 -14 -125 -25 -49 -11 -101 -22 -115 -25 -104 -21 -455 -134 -550 -177 -19 -8 -98 -43 -175 -77 -713 -315 -1373 -893 -1803 -1581 -71 -113 -129 -214 -145 -251 -6 -16 -14 -28 -17 -28 -3 0 -11 12 -17 28 -29 67 -163 287 -270 441 -171 244 -444 546 -678 749 -300 260 -663 493 -1000 642 -77 34 -156 69 -175 77 -95 43 -446 156 -550 177 -14 3 -65 14 -115 25 -49 11 -106 22 -125 25 -41 7 -271 42 -350 52 -30 5 -3083 9 -6785 10 -6461 2 -6732 2 -6787 -16z m13502 -926 c41 -4 84 -8 95 -9 92 -9 154 -22 354 -71 155 -37 228 -58 276 -79 17 -7 46 -18 65 -23 118 -34 400 -174 598 -296 306 -190 623 -481 850 -782 139 -185 296 -451 372 -634 18 -41 38 -88 45 -105 58 -132 133 -388 170 -575 60 -311 55 483 58 -9923 1 -5223 -1 -9496 -4 -9495 -4 2 -96 116 -205 253 -227 287 -344 422 -476 551 -178 174 -385 338 -593 469 -130 81 -415 228 -535 274 -47 18 -98 39 -115 46 -55 24 -249 83 -370 114 -210 52 -421 85 -635 99 -63 4 -2980 7 -6482 7 l-6368 0 0 10097 0 10098 6289 2 c3459 2 6345 0 6413 -3 68 -4 157 -10 198 -15z m19600 -10082 l0 -10097 -6367 0 c-3503 0 -6420 -3 -6483 -7 -310 -20 -633 -84 -925 -186 -587 -203 -1100 -547 -1509 -1012 -51 -58 -182 -217 -290 -355 -109 -137 -201 -251 -205 -253 -3 -1 -5 1059 -4 2355 2 1297 4 5603 6 9568 2 6774 3 7216 20 7315 48 293 123 575 202 755 7 17 27 64 45 105 76 183 233 449 372 634 227 301 544 592 850 782 198 122 480 262 598 296 19 5 49 16 65 23 48 21 121 42 276 79 200 49 262 62 354 71 11 1 54 5 95 10 41 4 129 10 195 14 66 3 2952 5 6413 3 l6292 -2 0 -10098z m-33429 -1804 c0 -4842 2 -8812 3 -8823 23 -179 175 -346 350 -385 30 -7 2245 -10 6688 -11 5296 -1 6664 -4 6748 -14 161 -19 199 -25 270 -40 36 -8 77 -16 90 -19 14 -2 73 -18 132 -35 458 -131 915 -419 1222 -770 73 -83 478 -590 1139 -1426 194 -245 238 -293 301 -330 78 -45 135 -60 236 -60 101 0 158 15 236 60 63 37 107 85 301 330 661 836 1066 1343 1139 1426 240 275 595 528 944 672 131 54 164 65 278 98 124 35 115 33 252 59 267 50 -131 48 6988 49 4443 1 6658 4 6688 11 175 39 327 206 350 385 1 11 3 3981 3 8823 l1 8802 700 0 700 0 2 -9701 c2 -5335 0 -9705 -3 -9710 -3 -5 -3084 -10 -7535 -12 -4141 -2 -7551 -6 -7578 -10 -44 -7 -128 -28 -230 -57 -118 -35 -304 -144 -417 -246 -37 -32 -215 -230 -395 -439 -1061 -1228 -1279 -1478 -1353 -1547 -132 -124 -344 -256 -505 -315 -54 -19 -194 -62 -226 -69 -89 -18 -259 -35 -340 -35 -107 0 -305 24 -383 46 -218 62 -356 126 -520 238 -171 117 -124 65 -1512 1672 -176 203 -347 396 -380 428 -106 103 -317 230 -441 267 -102 29 -186 50 -230 57 -27 4 -3437 8 -7578 10 -4451 2 -7532 7 -7535 12 -3 5 -5 4375 -3 9710 l2 9701 700 0 700 0 1 -8802z"/>
<path d="M12293 35659 c-82 -14 -178 -64 -242 -128 -232 -231 -170 -602 126 -748 l77 -38 4985 -3 c3895 -2 4996 0 5031 10 120 32 248 136 299 242 62 127 62 299 -1 420 -47 92 -158 188 -265 229 l-58 22 -4950 1 c-2784 1 -4973 -2 -5002 -7z"/>
<path d="M12282 32825 c-124 -27 -223 -93 -291 -195 -172 -259 -54 -602 243 -704 l61 -21 4925 -3 c3362 -2 4947 1 4995 8 238 35 425 264 401 489 -22 206 -130 343 -325 415 l-56 21 -4945 2 c-4173 1 -4955 -1 -5008 -12z"/>
<path d="M12330 30003 c-284 -32 -475 -308 -404 -584 42 -164 198 -310 359 -336 28 -4 2278 -8 5000 -8 l4950 0 65 24 c333 122 426 529 176 769 -62 60 -112 90 -195 120 -43 16 -417 17 -4981 18 -2714 0 -4951 -1 -4970 -3z"/>
<path d="M12256 27159 c-150 -36 -293 -182 -336 -347 -24 -92 -7 -220 42 -314 60 -114 158 -198 276 -235 55 -17 272 -18 5027 -18 4832 0 4972 1 5025 19 133 45 233 135 288 258 53 116 51 269 -5 386 -40 84 -132 175 -221 220 l-76 37 -4990 2 c-2983 0 -5007 -3 -5030 -8z"/>
<path d="M12250 24326 c-99 -26 -211 -111 -272 -206 -80 -125 -90 -297 -24 -435 63 -133 196 -239 335 -265 75 -14 9851 -14 9941 0 251 40 435 302 379 540 -6 25 -12 53 -14 63 -10 46 -74 143 -127 193 -67 61 -94 77 -180 105 -60 19 -145 19 -5027 18 -3864 0 -4976 -3 -5011 -13z"/>
<path d="M12285 21503 c-49 -12 -113 -36 -150 -58 -90 -52 -189 -184 -211 -280 -13 -62 -16 -165 -5 -215 26 -122 130 -259 238 -314 121 -61 -293 -56 5093 -56 3089 0 4947 4 4983 10 138 22 274 125 334 250 125 260 -1 558 -274 649 l-62 21 -4963 -1 c-2730 -1 -4972 -3 -4983 -6z"/>
<path d="M28928 35656 c-172 -38 -311 -174 -357 -351 -17 -63 -13 -166 9 -236 41 -132 132 -234 265 -296 l60 -28 5011 0 5010 0 76 37 c184 91 289 287 261 484 -27 189 -158 332 -353 385 -62 17 -306 18 -4995 17 -3889 0 -4942 -3 -4987 -12z"/>
<path d="M28975 32833 c-117 -11 -241 -82 -317 -180 -72 -96 -92 -157 -92 -283 0 -86 4 -115 23 -163 51 -128 159 -232 291 -279 l65 -23 4935 -2 c3123 -1 4957 2 4995 8 87 14 190 68 256 134 124 124 166 298 114 469 -48 158 -204 289 -375 316 -61 9 -9794 12 -9895 3z"/>
<path d="M28956 29999 c-123 -18 -246 -96 -316 -201 -59 -89 -83 -178 -77 -281 13 -202 125 -350 318 -419 l64 -23 4970 0 4970 0 65 24 c85 31 133 62 192 124 97 101 144 257 119 394 -36 197 -199 354 -396 383 -88 12 -9823 12 -9909 -1z"/>
<path d="M28885 27152 c-237 -82 -367 -315 -310 -557 39 -169 198 -316 370 -344 85 -14 9871 -14 9944 0 211 40 380 240 381 451 0 65 -18 143 -48 208 -37 79 -142 181 -228 222 l-69 33 -4995 2 c-4717 2 -4998 1 -5045 -15z"/>
<path d="M28939 24336 c-3 -3 -20 -8 -38 -11 -81 -14 -220 -117 -272 -202 -57 -92 -83 -243 -59 -342 44 -184 198 -332 375 -361 39 -6 1812 -10 4977 -10 5396 0 4983 -5 5101 58 141 75 247 248 247 404 0 201 -137 389 -328 448 -63 20 -112 20 -5031 20 -2732 0 -4970 -2 -4972 -4z"/>
<path d="M28878 21486 c-89 -31 -124 -54 -190 -124 -97 -102 -135 -208 -125 -352 8 -115 60 -224 144 -301 57 -51 147 -101 215 -116 43 -10 9930 -10 9983 0 56 10 152 59 204 104 52 44 116 140 133 197 6 23 13 48 16 56 10 37 9 150 -2 200 -37 159 -161 293 -317 341 -59 19 -181 19 -5027 19 l-4967 0 -67 -24z"/>
</g>
</svg>
