<?xml version="1.0" standalone="no"?>
<!DOCTYPE svg PUBLIC "-//W3C//DTD SVG 20010904//EN"
 "http://www.w3.org/TR/2001/REC-SVG-20010904/DTD/svg10.dtd">
<svg version="1.0" xmlns="http://www.w3.org/2000/svg"
 width="980.000000pt" height="980.000000pt" viewBox="0 0 980.000000 980.000000"
 preserveAspectRatio="xMidYMid meet">

<g transform="translate(0.000000,980.000000) scale(0.100000,-0.100000)"
fill="#000000" stroke="none">
<path d="M3425 7575 c-296 -47 -562 -179 -777 -383 -235 -225 -377 -485 -445
-817 -15 -71 -17 -228 -20 -1400 -3 -899 -1 -1360 7 -1446 31 -362 170 -659
430 -920 206 -207 423 -327 725 -401 l90 -22 1419 -3 c1373 -3 1424 -3 1535
16 599 102 1076 566 1198 1168 17 82 18 181 18 1518 0 1337 -1 1436 -18 1518
-59 289 -198 547 -406 757 -202 202 -432 329 -730 403 -85 21 -94 21 -1516 23
-1127 2 -1447 0 -1510 -11z m2858 -460 c454 -68 800 -426 857 -885 14 -116 14
-2574 0 -2690 -51 -411 -338 -747 -738 -861 -134 -38 -215 -40 -1572 -37
l-1315 3 -100 28 c-375 103 -656 391 -741 762 -18 76 -19 152 -19 1450 0 1300
1 1374 19 1450 69 300 266 549 543 689 84 42 219 83 313 95 36 5 648 9 1360
10 1093 1 1310 -1 1393 -14z"/>
<path d="M6284 6639 c-65 -15 -144 -69 -180 -122 -41 -59 -54 -104 -54 -183 0
-91 24 -150 89 -215 66 -66 124 -89 220 -89 168 0 303 135 304 305 1 89 -27
155 -91 218 -78 76 -189 110 -288 86z"/>
<path d="M4693 6349 c-551 -85 -1012 -474 -1188 -1003 -51 -153 -65 -236 -72
-406 -4 -116 -1 -183 11 -266 91 -618 540 -1098 1157 -1236 90 -20 130 -23
299 -23 162 1 212 5 297 23 291 63 536 197 747 407 209 208 345 457 408 748
29 137 32 426 5 560 -61 300 -194 545 -416 768 -221 220 -450 347 -746 411
-104 23 -401 33 -502 17z m419 -515 c358 -80 646 -364 739 -729 33 -132 32
-321 -5 -460 -120 -462 -535 -768 -1005 -742 -241 14 -456 111 -632 286 -126
126 -211 274 -261 459 -32 116 -32 354 0 472 47 174 136 326 261 450 155 154
336 245 557 280 79 12 256 4 346 -16z"/>
</g>
</svg>
