<?xml version="1.0" standalone="no"?>
<!DOCTYPE svg PUBLIC "-//W3C//DTD SVG 20010904//EN" "http://www.w3.org/TR/2001/REC-SVG-20010904/DTD/svg10.dtd">
<svg xmlns="http://www.w3.org/2000/svg" version="1.0" width="1920.000000pt" height="1920.000000pt" viewBox="0 0 1920.000000 1920.000000" preserveAspectRatio="xMidYMid meet">
<metadata>
Created by potrace 1.16, written by Peter Selinger 2001-2019
<meta name="Producer" content="Online-Convert"/></metadata>
<g transform="translate(0.000000,1920.000000) scale(0.100000,-0.100000)" fill="#000000" stroke="none">
<path d="M9442 15329 c-54 -27 -106 -88 -121 -142 -9 -31 -11 -291 -9 -973 l3 -931 30 -49 c96 -155 323 -146 405 17 20 38 20 59 18 997 l-3 958 -28 42 c-44 67 -97 96 -181 100 -57 2 -79 -1 -114 -19z"/>
<path d="M13365 13749 c-24 -12 -299 -279 -683 -662 -490 -490 -648 -654 -667 -691 -60 -120 -12 -256 110 -312 62 -29 125 -30 185 -3 67 30 1332 1293 1366 1364 75 157 -34 325 -211 325 -42 0 -73 -6 -100 -21z"/>
<path d="M5539 13662 c-95 -50 -139 -158 -109 -270 12 -44 58 -93 669 -706 702 -705 704 -706 801 -706 58 0 136 37 177 83 58 66 70 169 28 253 -19 37 -176 200 -672 695 -411 410 -661 652 -685 662 -58 27 -146 22 -209 -11z"/>
<path d="M9325 12543 c-284 -37 -447 -75 -652 -149 -790 -286 -1398 -938 -1628 -1745 -130 -455 -135 -921 -15 -1382 91 -353 256 -680 497 -987 398 -509 587 -994 624 -1600 11 -197 18 -227 62 -276 95 -109 276 -104 358 9 45 62 52 104 46 267 -28 675 -273 1322 -706 1865 -253 316 -401 638 -473 1030 -18 101 -22 157 -22 355 0 260 13 364 75 585 229 814 928 1426 1770 1550 130 20 384 26 509 14 243 -24 521 -104 745 -213 223 -109 387 -227 571 -410 142 -142 240 -267 335 -428 215 -361 309 -736 296 -1171 -8 -272 -55 -501 -153 -741 -80 -196 -150 -315 -319 -541 -368 -491 -558 -939 -646 -1520 -26 -168 -37 -514 -19 -570 54 -168 270 -217 392 -88 47 49 55 86 62 268 19 481 119 855 337 1255 69 129 120 204 252 382 180 242 270 394 361 610 140 335 200 638 200 1018 0 233 -11 340 -55 554 -80 383 -262 767 -515 1086 -83 104 -292 314 -394 396 -363 292 -768 473 -1241 555 -100 17 -173 22 -374 24 -137 1 -263 1 -280 -2z"/>
<path d="M13265 9861 c-148 -69 -182 -266 -64 -378 70 -67 12 -63 1046 -63 929 0 937 0 980 21 78 38 133 124 133 209 0 85 -55 171 -133 209 -43 21 -50 21 -983 21 -893 0 -941 -1 -979 -19z"/>
<path d="M3997 9756 c-58 -21 -103 -61 -131 -118 -47 -94 -29 -195 49 -271 71 -69 37 -67 1031 -67 598 0 910 4 943 11 71 15 123 57 156 123 52 106 21 229 -74 293 -19 13 -50 27 -70 33 -23 6 -367 10 -951 10 -738 -1 -922 -3 -953 -14z"/>
<path d="M12238 7196 c-67 -18 -116 -60 -145 -124 -21 -45 -25 -65 -21 -117 3 -34 14 -75 23 -91 32 -51 1307 -1324 1350 -1347 55 -29 154 -29 210 0 112 59 156 196 100 309 -35 71 -1314 1347 -1365 1362 -63 19 -104 21 -152 8z"/>
<path d="M6880 7104 c-20 -10 -319 -300 -683 -663 -496 -495 -653 -658 -672 -695 -99 -199 116 -409 313 -307 56 29 1337 1317 1357 1363 39 95 1 224 -83 283 -38 26 -54 30 -120 33 -57 2 -86 -2 -112 -14z"/>
<path d="M8404 6196 c-167 -78 -181 -309 -24 -403 l54 -33 1103 0 c1208 0 1142 -3 1206 58 49 46 71 100 72 173 0 56 -4 73 -30 115 -19 30 -49 60 -79 79 l-49 30 -1101 2 -1101 3 -51 -24z"/>
<path d="M8440 5601 c-74 -23 -117 -61 -149 -131 -61 -134 19 -290 162 -320 36 -7 386 -10 1122 -8 l1070 3 41 22 c98 52 151 164 125 261 -22 85 -84 150 -162 172 -40 12 -2171 12 -2209 1z"/>
<path d="M8438 4986 c-65 -17 -111 -56 -142 -118 -63 -127 -3 -276 131 -324 31 -11 241 -13 1114 -14 1205 0 1131 -4 1207 73 41 42 72 108 72 154 0 85 -55 174 -134 216 l-41 22 -1080 2 c-847 1 -1090 -1 -1127 -11z"/>
<path d="M8861 4284 c-141 -71 -170 -256 -57 -368 73 -73 48 -71 741 -71 609 0 621 0 665 21 150 70 188 256 77 373 -70 74 -38 71 -743 71 l-630 0 -53 -26z"/>
</g>
</svg>
