<?xml version="1.0" standalone="no"?>
<!DOCTYPE svg PUBLIC "-//W3C//DTD SVG 20010904//EN"
 "http://www.w3.org/TR/2001/REC-SVG-20010904/DTD/svg10.dtd">
<svg version="1.0" xmlns="http://www.w3.org/2000/svg"
 width="1920.000000pt" height="1920.000000pt" viewBox="0 0 1920.000000 1920.000000"
 preserveAspectRatio="xMidYMid meet">

<g transform="translate(0.000000,1920.000000) scale(0.100000,-0.100000)"
fill="#000000" stroke="none">
<path d="M5435 14719 c-417 -60 -786 -375 -914 -779 -54 -174 -51 115 -51
-4340 0 -3658 2 -4117 15 -4191 43 -233 138 -419 299 -587 157 -164 326 -262
560 -325 l81 -22 4120 -3 c2899 -2 4145 0 4203 8 431 56 800 365 931 780 54
174 51 -115 51 4340 0 4455 3 4166 -51 4340 -130 412 -494 720 -923 779 -95
13 -8229 13 -8321 0z m1695 -1939 c284 -97 482 -324 537 -614 19 -101 13 -322
-11 -411 -80 -291 -334 -535 -616 -591 -105 -21 -275 -14 -365 14 -263 83
-466 296 -551 579 -23 77 -27 106 -27 228 0 113 4 156 22 220 39 147 106 263
209 369 108 111 220 178 363 216 105 28 343 23 439 -10z m4625 -1990 c404 -33
718 -165 953 -399 208 -207 317 -459 366 -851 31 -246 36 -482 36 -1812 l0
-1338 -725 0 -725 0 0 1245 c0 1068 -2 1260 -15 1355 -44 314 -152 505 -336
593 -172 82 -418 89 -621 18 -108 -37 -254 -151 -320 -247 -72 -107 -140 -290
-177 -474 -54 -277 -61 -447 -61 -1542 l0 -948 -710 0 -710 0 0 2135 0 2135
663 -2 662 -3 2 -410 c1 -225 3 -417 3 -425 0 -8 18 15 39 51 203 349 470 617
751 759 164 82 382 141 595 159 145 12 188 12 330 1z m-4145 -2265 l0 -2135
-720 0 -720 0 0 2135 0 2135 720 0 720 0 0 -2135z"/>
</g>
</svg>
