<?xml version="1.0" standalone="no"?>
<!DOCTYPE svg PUBLIC "-//W3C//DTD SVG 20010904//EN" "http://www.w3.org/TR/2001/REC-SVG-20010904/DTD/svg10.dtd">
<svg xmlns="http://www.w3.org/2000/svg" version="1.0" width="5000.000000pt" height="5000.000000pt" viewBox="0 0 5000.000000 5000.000000" preserveAspectRatio="xMidYMid meet">
<metadata>
Created by potrace 1.16, written by Peter Selinger 2001-2019
<meta name="Producer" content="Online-Convert"/></metadata>
<g transform="translate(0.000000,5000.000000) scale(0.100000,-0.100000)" fill="#000000" stroke="none">
<path d="M24005 35083 c-1031 -40 -1989 -413 -2800 -1091 -133 -111 -487 -469 -601 -607 -667 -808 -1069 -1789 -1168 -2850 -14 -147 -26 -481 -21 -590 15 -346 24 -447 55 -665 139 -958 533 -1843 1151 -2585 107 -129 374 -401 509 -520 250 -219 556 -435 843 -594 1175 -652 2583 -744 3837 -250 812 319 1529 874 2072 1603 552 739 894 1629 993 2579 19 182 24 325 20 612 -4 391 -26 611 -96 964 -308 1561 -1302 2878 -2671 3541 -466 225 -930 361 -1448 425 -128 15 -479 36 -560 33 -25 -1 -76 -3 -115 -5z"/>
<path d="M35925 32893 c-1347 -114 -2522 -925 -3202 -2213 -240 -453 -432 -1053 -493 -1540 -7 -52 -14 -103 -16 -112 -33 -178 -40 -826 -11 -1088 124 -1122 575 -2090 1316 -2830 625 -624 1374 -997 2233 -1112 219 -29 651 -31 863 -4 729 93 1355 360 1950 833 151 120 499 469 627 631 603 757 944 1650 1015 2657 13 182 7 595 -11 783 -121 1252 -688 2359 -1596 3118 -602 503 -1319 802 -2095 874 -100 9 -484 11 -580 3z"/>
<path d="M12470 32769 c-1247 -113 -2360 -841 -3045 -1990 -359 -602 -571 -1260 -650 -2019 -13 -132 -17 -634 -6 -791 120 -1631 1009 -3042 2346 -3721 392 -199 794 -319 1275 -380 137 -17 628 -17 770 0 876 107 1626 469 2264 1092 363 355 635 729 866 1190 250 499 416 1065 475 1620 3 30 8 71 10 90 3 19 9 130 15 245 36 808 -132 1627 -481 2336 -106 216 -155 302 -277 489 -172 264 -310 436 -537 669 -637 652 -1412 1045 -2285 1157 -145 18 -594 27 -740 13z"/>
<path d="M24120 24650 c-1936 -65 -3808 -726 -5369 -1895 -644 -482 -1248 -1061 -1756 -1685 -581 -713 -1074 -1530 -1441 -2388 -451 -1054 -730 -2222 -799 -3342 -3 -52 -8 -122 -10 -155 -3 -33 -7 -153 -11 -267 l-6 -208 9717 0 9717 0 -6 123 c-3 67 -8 192 -11 277 -5 141 -18 336 -30 465 -3 28 -8 77 -11 110 -14 153 -58 479 -89 666 -510 3045 -2355 5671 -5014 7136 -205 113 -632 321 -846 411 -759 321 -1549 543 -2335 656 -251 36 -315 44 -500 60 -262 23 -309 26 -590 36 -287 10 -293 10 -610 0z"/>
<path d="M36075 23643 c-22 -1 -114 -7 -205 -14 -1177 -79 -2382 -466 -3445 -1106 -77 -47 -146 -90 -153 -97 -9 -9 13 -40 109 -146 559 -621 1058 -1320 1483 -2080 129 -229 371 -721 486 -985 536 -1234 856 -2592 926 -3934 4 -74 8 -147 9 -163 1 -15 2 -86 3 -158 l2 -130 4691 0 4691 0 -6 193 c-4 105 -11 264 -17 352 -103 1692 -665 3338 -1601 4690 -326 471 -601 800 -1017 1216 -467 467 -861 787 -1386 1126 -401 258 -901 516 -1345 693 -779 311 -1575 488 -2420 540 -132 8 -710 10 -805 3z"/>
<path d="M12665 23524 c-27 -2 -120 -8 -205 -14 -1551 -109 -3076 -712 -4328 -1713 -442 -354 -922 -828 -1277 -1262 -768 -937 -1348 -2044 -1690 -3226 -187 -646 -314 -1360 -350 -1974 -3 -55 -8 -109 -10 -120 -2 -11 -7 -129 -11 -262 l-7 -243 4402 0 4401 0 0 23 c2 254 39 910 65 1127 50 421 79 614 131 895 396 2134 1379 4084 2863 5680 101 108 110 121 94 133 -33 24 -429 221 -578 287 -692 308 -1389 507 -2116 604 -250 33 -293 38 -429 46 -52 4 -108 9 -125 11 -37 6 -761 13 -830 8z"/>
</g>
</svg>
